<?xml version="1.0" encoding="UTF-8"?>
<svg version="1.1" viewBox="0 0 1796 1796" width="449" height="449" xmlns="http://www.w3.org/2000/svg">
<path transform="translate(1439,169)" d="m0 0 9 1 8 3 7 6 7 11 7 18 10 36 8 36 9 48 8 52 4 34 3 30 3 59 1 20v41l-3 63-3 31-3 27-5 33-7 38-10 42-10 36-12 37-12 32-12 29-11 24-14 29-15 28-16 27-12 19-10 15-20 28-8 10-11 14-9 11-10 11-7 8-11 12-7 8-35 35-8 7-14 12-10 9-14 11-12 10-19 14-18 13-26 17-24 15-25 14-22 12-35 17-28 12-31 12-29 10-21 7-27 8-41 10-36 7-26 4-33 4-37 3-19 1h-67l-31-2-30-3-32-5-32-7-33-10-26-10-27-11-5-2-4 16-7 34-5 27-7 44-2 21-2 13-3 33-3 38-4 28-4 11-9 11-8 6-8 3h-17l-20-3-9-4-10-10-6-10-4-12-2-15v-38l2-34 3-25 2-20 2-13 2-18 5-32 6-34 13-55 8-29 1-4-9-14-13-20-10-17-6-10-8-16-12-26-11-29-10-31-8-30-7-35-4-27-4-40v-77l5-47 5-29 6-29 8-30 9-27 9-22 11-24 15-29 9-15 11-18 16-23 12-16 12-15 7-8 9-10 7-8 9-10h2l2-4h2l2-4 4-4h2l1-3 8-7 10-9 8-7 16-13 17-13 23-16 22-14 20-12 27-15 22-11 36-16 38-15 35-12 41-12 40-9 51-11 111-22 59-12 22-5 32-7 29-7 52-13 28-8 60-20 34-13 37-16 25-12 28-14 22-12 24-14 22-14 18-11 16-8z" fill="#7AAD5F"/>
<path transform="translate(1439,169)" d="m0 0 9 1 8 3 7 6 7 11 7 18 10 36 8 36 9 48 8 52 4 34 3 30 3 59 1 20v41l-3 63-3 31-3 27-5 33-7 38-10 42-10 36-12 37-12 32-12 29-11 24-14 29-15 28-16 27-12 19-10 15-20 28-8 10-11 14-9 11-10 11-7 8-11 12-7 8-35 35-8 7-14 12-10 9-14 11-12 10-19 14-18 13-26 17-24 15-25 14-22 12-35 17-28 12-31 12-29 10-21 7-27 8-41 10-36 7-26 4-33 4-37 3-19 1h-67l-31-2-30-3-32-5-32-7-33-10-26-10-27-11-5-2-4 16-7 34-5 27-7 44-2 21-2 13-3 33-3 38-4 28-4 11-9 11-8 6-8 3h-17l-20-3-9-4-10-10-6-10-4-12-2-15v-38l2-34 3-25 2-20 2-13 2-18 5-32 6-34 13-55 8-29 1-4-9-14-13-20-10-17-6-10-8-16-12-26-11-29-10-31-8-30-7-35-4-27-4-40v-77l5-47 5-29 6-29 8-30 9-27 9-22 11-24 15-29 9-15 11-18 16-23 12-16 12-15 7-8 9-10 7-8 9-10h2l2-4h2l2-4 4-4h2l1-3 8-7 10-9 8-7 16-13 17-13 23-16 22-14 20-12 27-15 22-11 36-16 38-15 35-12 41-12 40-9 51-11 111-22 59-12 22-5 32-7 29-7 52-13 28-8 60-20 34-13 37-16 25-12 28-14 22-12 24-14 22-14 18-11 16-8zm-39 134-10 5-17 10-23 12-18 10-28 13-37 16-34 13-31 11-39 12-28 8-64 16-37 8-52 10-87 15-100 20-49 13-36 11-47 16-14 5-12 5-36 16-29 15-22 13-11 7-12 8-28 21-13 10-28 24-27 27-8 10-11 13-12 16-8 11-10 15-12 21-14 26-11 24-11 30-7 22-8 33-4 23-3 24-1 14v44l3 38 4 28 8 36 7 25 9 25 11 26 12 26 4-2 8-16 10-21 10-19 10-20 12-22 12-21 17-28 20-30 11-15 12-16 14-18 12-14 9-11 11-12 7-8 9-9 7-8 10-10 8-7 8-8 8-7 13-12 11-9 14-12 18-14 16-12 14-10 20-14 38-24 24-14 27-15 37-19 31-14 23-9 35-13 53-18 34-10 57-14 12-2h13l12 3 5 3 4 8-1 9-6 8-11 8-23 12-29 13-33 15-29 14-22 12-27 15-28 16-20 12-24 15-22 14-19 13-18 13-11 8-17 13-15 12-22 18-12 11-11 9-15 14-12 11-33 33-7 8-7 7-8 10-14 15-9 11-12 14-11 14-20 26-13 19-12 18-8 13-12 19-14 25-11 20-8 16-13 28-7 15-12 29-2 5v5l9 6 26 11 31 10 32 8 21 4 27 4 31 3 28 1h46l39-2 43-5 43-7 41-9 40-11 36-12 29-11 36-16 21-10 20-11 19-11 22-14 23-16 18-13 16-12 14-11 10-9 11-9 15-14 8-7 6-7 23-23 7-8 10-11 8-10 11-13 10-13 13-18 12-19 14-23 16-27 11-20 11-23 12-27 10-26 14-41 8-28 8-30 7-36 4-27 4-33 3-32 2-27 1-32v-57l-1-37-3-46-4-42-6-42-8-48-1-3z" fill="#358353"/>
<path transform="translate(1071,645)" d="m0 0h13l12 3 6 4 4 8-1 9-6 8-12 9-23 12-29 13-33 15-29 14-22 12-27 15-28 16-20 12-24 15-22 14-19 13-18 13-11 8-17 13-15 12-22 18-12 11-11 9-15 14-12 11-32 32-7 8-7 7-8 10-14 15-9 11-12 14-11 14-20 26-13 19-12 18-8 13-12 19-14 25-4 4-3-2 2-1 1-4 3-3v-5l4-5 2-6 2 1 1-5h3v-6l4-4 2-6 4-4h2l1-7 3-3 2-5 5-5 3-7 4-5h2l2-7 10-10 2-6 4-5h2l2-6h2l1-4 4-4 3-4h2v-2h2l2-6h2l1-4 3-4h2v-2h2v-2h2v-2h2l2-4h2l2-4 4-6h2l2-5 4-4h2v-3l4-4h2l1-2 3-3h2l2-4h2l2-4v-3h3l1-5h2l2-4h2l2-4h2l2-4h2l2-4 4-5h2v-2h2v-2h2v-2h2v-2h2v-2h2v-2h2l2-4h2v-2h2v-2l8-7 7-6 4-1 1-2 3-1 1-3 2 1 1-4 4-2 3-5 4-2 2-4h2l1-3 4-1 1-3 6-4 9-8 5-5 4-3 6-4 4-2v-2h2v-2h2v-2l8-4 4-4h2v-2h2v-2l11-6 5-5h2v-2l6-3h2v-2l14-9 20-13 14-9 2-2 7-3 9-6 10-6 13-8 15-9 12-6 8-5 23-13 11-6 19-10 13-6 21-10 41-18 21-10 15-9 7-8 1-7-3-6-8-2-7-1-7 1-5-1h-9l-16 3-9 3-11 2-5 2-9 1-7 3-21 5-7 3-11 3-18 6-7 3-11 3-10 4-10 3-12 4-3 2-9 2-2 2-8 2-7 3-5 2-6 3-11 4-10 5-15 7-16 8-15 8h-3v2l-12 6-11 6-12 7-13 8-9 5-20 13-11 7-22 16-12 8-13 10h-2v2l-5 4h-2v2l-11 8h-2l-1 3-8 7h-2v2l-10 8-7 6-1 2-4 2-5 5-3 1v2h-2v2l-7 6-5 6-7 6-5 6-7 6-7 8-3 3h-2l-1 4-4 4h-2l-2 4-11 13-14 16-1 3h-2l-2 4-7 8h-2l-1 4-5 8-4 4h-2l-1 4-5 8h-2l-2 4-5 8-6 9-7 10-6 9-7 12-5 8h-3l1-5 13-21 18-27 11-15 12-16 14-18 12-14 9-11 11-12 7-8 9-9 7-8 11-11 8-7 8-8 8-7 13-12 11-9 14-12 18-14 16-12 14-10 20-14 38-24 24-14 27-15 37-19 31-14 23-9 35-13 53-18 34-10 57-14z" fill="#1F784D"/>
<path transform="translate(1395,301)" d="m0 0h5v3l-10 5-17 10-23 12-18 10-28 13-37 16-34 13-31 11-39 12-28 8-64 16-37 8-52 10-87 15-100 20-49 13-36 11-47 16-14 5-12 5-36 16-29 15-22 13-11 7-12 8-28 21-11 8h-2l1-6 5-2 2-4 5-3 2-2 6-4 9-8 9-6 5-4h2l1-2 9-6 8-4h2l1-2 14-8 5-2 1-2 7-2 1-2 12-6h3l1-2 8-4 13-6 25-11 33-11 8-3 10-3 10-4 10-3 11-3 7-3 37-10 9-2 22-5 9-2 21-4 13-3 25-5 21-4 14-2 3-1 10-2 14-2 13-2 14-3 17-2 12-3 13-2 17-3 7-2 13-2 11-3 16-3 3-1 26-6 5-2 14-3 4-1 14-4 12-3 23-7 25-8 7-2 24-8 30-11 24-10 11-5 15-6 32-16 21-10 11-6 14-8 8-4h2v-2h5z" fill="#21794E"/>
<path transform="translate(1486,805)" d="m0 0h3l-1 8-10 34-13 38-11 28-12 28-16 34-15 29-14 24-13 22-12 18-11 16-8 11-20 26-18 22-14 15-7 8-11 12-33 33-8 7-14 12-10 9-14 11-12 10-19 14-18 13-26 17-24 15-25 14-22 12-35 17-28 12-31 12-9 2-3-1 1-3 13-3 1-1 7-1 4-3h2v-2l23-10 15-7 13-6 9-4 30-15 6-4 12-6 8-5 14-8 11-7 5-2v-2l6-3 8-6 5-2 2-3 6-1-1-4 6-2 5-2 1-3 6-4 7-3 4-5 4-1 2-4 8-4 2-4h3l1-3 4-2 1-2 3-1 2-3 6-2v-2h2l2-5 13-10 5-5h2l1-3 4-1v-3l4-1 2-4h2v-2h2v-2h2v-2h2v-2h2v-2h2v-2h2v-2l4-1 2-4h2l2-4h2v-3h2v-2h2v-2h2l1-4 5-5 9-10h2l2-4 6-7 1-2h2l2-5 7-7 5-7h2l2-4 5-8h2v-4l8-7 7-11 5-2 1-7 4-4 6-9 9-15 5-9 6-7 8-14 8-16 7-12 2-1 4-8 3-9 11-24 10-22 4-8 3-8 3-1 3-10h2l2-11 4-9 3-5 7-21h2l1-17 2-4 3-10 5-16z" fill="#20774B"/>
<path transform="translate(311,1367)" d="m0 0 1 4v9l-3 10-1 9-3 8-2 16-3 16-6 36-3 26-5 49v14l-2 13-1 20 1 19-1 3h2l4 10-1 9 1 7 1 5 1 3 5 4 2 5 4 1 3 2 10 1 4-2v-1l13-4 11-1 5-1v2h2l2 3 5 1 2-2 3-1 4-9 3-10 2-8 4-41 1-9 1-2 5-49 2-19 4-27 7-37 3-8h1v10l-7 40-3 20-2 21-2 13-3 33-3 38-4 28-4 11-9 11-8 6-8 3h-17l-20-3-9-4-10-10-6-10-4-12-2-15v-38l2-34 3-25 2-20 2-13 2-18 5-32 6-34 9-39z" fill="#20784D"/>
<path transform="translate(1372,205)" d="m0 0h4v2l-4 1v2l-6 3-6 5-14 7-21 12-19 10-43 20-28 12-30 11-57 19-24 7-15 4-18 5-15 4-14 3-30 7-32 7-42 9-52 10-28 6-26 5-11 2-24 5-14 2-11 3-36 8-11 2-20 5-42 12-15 5-17 5-6 1 3-4 36-12 34-10 40-9 51-11 111-22 59-12 22-5 32-7 29-7 52-13 28-8 60-20 34-13 37-16 25-12 28-14 22-12z" fill="#236231"/>
<path transform="translate(1289,1026)" d="m0 0h3l-2 6-4 5h-2l-1 5-5 7-4 4h-2l-1 5-5 7-4 4h-2l-2 4-10 13-9 10-3 1-1 4-4 4h-2l-2 4-9 10-19 19h-2v2l-7 5h-2l-2 4-6 5-5 5-10 9-10 8-4 4-5 3-18 13-10 8-7 4-11 8h-2v2l-7 4-2 2-12 7-7 5-7 4-12 7-9 6-21 10-38 19-6 1v2l-8 3-10 4-3 2h-7v2l-10 4-27 9-4 1-12 4-9 2-5 2-9 2-11 3-5 1-9 2-7 2-14 3-18 3-5 1-19 3-5 1-17 2-13 2-22 1-1-3 7-1 1-1 43-5 43-7 41-9 40-11 36-12 29-11 36-16 21-10 20-11 19-11 22-14 23-16 18-13 16-12 14-11 10-9 11-9 15-14 6-6h2l1-3 7-6 7-8 13-13 7-8 10-11 8-10 11-13 10-13 13-18z" fill="#21794E"/>
<path transform="translate(1486,805)" d="m0 0h3l-1 8-10 34-13 38-11 28-12 28-16 34-15 29-14 24-13 22-12 18-11 16-3 4h-2v-4h2l2-5 3-5 1-5 4-6 9-15 5-9 6-7 8-14 8-16 7-12 2-1 4-8 3-9 11-24 10-22 4-8 3-8 3-1 3-10h2l2-11 4-9 3-5 7-21h2l1-17 2-4 3-10 5-16z" fill="#1F7246"/>
<path transform="translate(890,1406)" d="m0 0h4l-1 3-26 7-36 8-28 5-27 4-25 3-37 3-19 1h-67l-31-2-30-3-32-5-32-7-20-6-1-3 8 1 19 5 29 6 32 5 15 2 27 2 23 1h62l35-2 33-3 10-2 20-2 10-2 37-7 34-8z" fill="#1A5C2D"/>
<path transform="translate(1439,169)" d="m0 0 9 1 8 3 7 6 7 11 7 18 10 36 8 36 9 48 6 38v11l-2-1-2-9-4-26-6-34-4-20-3-16-6-29-5-15-4-16v-3h-2l-4-10-1-5-4-1-1-3-2-1-1-3-4-1-2-2-10-2h-6l-6 1-5 1v-2h-2l-2 4-2-1-1 2h-8v3l-6 3-8 2-8 6-7 4-2-1 5-5 17-11 17-10 12-5z" fill="#20774C"/>
<path transform="translate(495,497)" d="m0 0m-4 1h4v2l-6 4h-2v2l-12 7-6 5h-2l-1 3-9 6-5 5-5 2v2l-4 1v2h-2l-2 4-6 4-1 2-5 3-15 14h-2v2l-7 6h-2l-2 4h-2l-2 4h-2l-2 4h-2l-2 4h-2l-1 4h-3l-1 4-8 7-6 7h-2v2h-2v2h-2l-2 4-7 7-13 18-6 7-7 9-5 4-4 6-3 1 2-5 14-20 22-28 13-14 7-8 9-10h2l2-4h2l2-4 4-4h2l1-3 8-7 10-9 8-7 16-13 17-13 23-16z" fill="#20784C"/>
<path transform="translate(231,1099)" d="m0 0 2 3 11 44 8 25 5 15 4 10 7 17 4 9v2l3 1 8 16 8 15 5 10v3l3 1 3 5 4 10 3 4v3h2l4 8 4 5 2 6h3v3h3v5 3l-1 6-1 4h-2v6l-3 6-2 9-1 6-5 3 1-10 8-29 1-4-9-14-13-20-10-17-6-10-8-16-12-26-11-29-10-31-8-30-4-19z" fill="#20764B"/>
<path transform="translate(1138,1290)" d="m0 0m-1 1m-1 1h6l1 3-25 16-15 9-28 16-37 19-31 14-27 11-22 8-6-1 1-3 13-3 1-1 7-1 4-3h2v-2l23-10 15-7 13-6 9-4 30-15 6-4 12-6 8-5 14-8 11-7 5-2v-2l6-3z" fill="#1F7449"/>
<path transform="translate(1289,1026)" d="m0 0h3l-2 6-4 5h-2l-1 5-5 7-4 4h-2l-1 5-5 7-4 4h-2l-2 4-10 13-9 10-3 1-1 4-4 4h-2l-2 4-9 10-19 19h-2v2l-7 5h-2l-2 4-6 5-5 5-10 9-10 8-4 4-5 3-18 13-10 8-7 4-11 8h-2v2l-7 4-2 2-10 6-2-1 5-5 16-11 14-10 18-13 12-9 14-11 10-9 11-9 15-14 6-6h2l1-3 7-6 7-8 13-13 7-8 10-11 8-10 11-13 10-13 13-18z" fill="#20784D"/>
<path transform="translate(1512,409)" d="m0 0 3 1 2 15 3 34 3 64v41l-3 63h-2v12l-2 4v-12l1-21v-53l-1-93-2-20-2-27z" fill="#2E8050"/>
<path transform="translate(491,1317)" d="m0 0 17 3 30 8 26 5 27 4 5 2 24 2 28 1h68v2l-2 1-29 1-12 1-4-1h-37l-20-1-16-2-1-1-18-1-9-2-4-1v-2l-7 1-10-2-7-2-11-2-5-2-8-2-25-8z" fill="#1D774D"/>
<path transform="translate(243,822)" d="m0 0h1l-1 10-3 11-2 12-2 6-2 16-2 10-2 14v7l-1 4-4 27-1 18-1 5v68l-2-1-1-5v-77l5-47 5-29 6-29 5-19z" fill="#217448"/>
<path transform="translate(311,1367)" d="m0 0 1 4v9l-3 10-1 9-3 8-2 16-3 16-4 24h-2l-1 11-5 37-4 40h-1v-27l2-20 2-13 2-18 5-32 6-34 9-39z" fill="#216333"/>
<path transform="translate(398,1441)" d="m0 0h1v10l-7 40-3 20-2 21-2 13-3 33-2 27-1 3h-2l-1-3 1-24 5-49 2-19 4-27 7-37z" fill="#246736"/>
<path transform="translate(410,1385)" d="m0 0 7 1v2l3-1 8 3 4 3 7 1v2l6 1 9 4 5 2 10 3 3 2 9 2 9 3 16 5 10 2 8 2v1l-10-1-21-5-11-3v2l-9-2-29-11-27-11-5-2-4 16-6 29-2 2-1-1v-7l6-24 1-11z" fill="#22794D"/>
<path transform="translate(231,1099)" d="m0 0 2 3 11 44 8 25 5 15 4 10 7 17 6 13 4 12 4 6 5 12v2h2l2 7 3 3v3l-3-1-7-12-8-16-12-26-11-29-10-31-8-30-4-19z" fill="#195A2C"/>
<path transform="translate(1468,190)" d="m0 0h2l7 18 10 36 8 36 9 48 6 38v11l-2-1-2-9-4-26-6-34-4-20-3-16-6-29-5-15-4-16-4-14-2-4z" fill="#236434"/>
<path transform="translate(800,382)" d="m0 0 4 1-3 3-42 9-18 4-31 8-40 12-22 7-3-1 3-3 36-12 34-10 40-9z" fill="#1D5D2D"/>
<path transform="translate(1486,805)" d="m0 0h3l-1 8-10 34-13 38-11 28-12 28-3 3-1-2 1-6 3-3 1-5 4-9h2l1-10 4-10h2l2-11 4-9 3-5 7-21h2l1-17 2-4 3-10 5-16z" fill="#19592C"/>
<path transform="translate(619,433)" d="m0 0 3 1-1 2-23 9-9 5h-2v2l-11 5h-3v2l-7 2-19 10-6 2v2l-8 4-6 4h-3v2l-11 4-12 7-4 2 5-7 24-14 24-13 31-15 23-10z" fill="#1D774D"/>
<path transform="translate(839,1417)" d="m0 0 3 1-4 2-33 6-19 3-18 2-3 1-47 4-21 1h-62l-35-2v-1h45v2l9-2h15l23-1v2l4-1 27-1 5-1 18-1 6-1 13-1 30-4 16-3 24-4z" fill="#1D774D"/>
<path transform="translate(890,1406)" d="m0 0h4l-1 3-26 7-36 8-28 5-27 4-25 3-21 1v-2l2-1 33-3 10-2 20-2 10-2 37-7 34-8z" fill="#1A5B2D"/>
<path transform="translate(1426,588)" d="m0 0h1v37l-1 16-3 19v14l-2 6v6l-1 4-1 16h-2l-1 10-1 4h-2l2-26 4-33 4-51h2v-20z" fill="#21794E"/>
<path transform="translate(311,673)" d="m0 0h2l-2 5-3 5-3 7-3 6h-2l-1 5-5 9-2 2-3 7-5 8-1 4h-2l-1 5h-2v2l-2 1-4 11-4 8-5 13-4 8-2 1 1-8 13-29 10-20 13-23 12-20z" fill="#257748"/>
<path transform="translate(1512,409)" d="m0 0 3 1 2 15 3 34v59l-2-1-1-42-3-31-2-27z" fill="#1C6538"/>
<path transform="translate(1449,909)" d="m0 0 2 3-1 4-1 3h-2l-2 8-2 2-1 6-3 1v7l1 3-9 19-1-4-5 10h-2v2h-2l-2 5-1-2 13-28 10-22 4-8 3-8z" fill="#1F764B"/>
<path transform="translate(491,1317)" d="m0 0 17 3 30 8 26 5 13 2v1h-8l-3-1v3h-2v-2l-7 1-10-2-7-2-11-2-5-2-8-2-25-8z" fill="#237A4E"/>
<path transform="translate(243,822)" d="m0 0h1l-1 10-3 11-2 12-2 6-2 16-3 12-3 3v-11l6-30 7-28z" fill="#1E7044"/>
<path transform="translate(311,1367)" d="m0 0 1 4v9l-3 10-1 9-3 8-2 16-3 16-4 24h-1v-9l6-36 3-16-1 1h-1l1-9 6-26z" fill="#1F784D"/>
<path transform="translate(1515,653)" d="m0 0h1v15l-5 39-5 29-2 3-2-1 1-10 2-7 5-36 4-31z" fill="#246434"/>
<path transform="translate(575,452)" d="m0 0h5l-1 2-8 3-16 8-15 8-10 6-9 5-9 6-6 3-7 5-2-1 5-6 24-14 24-13z" fill="#1F5F2F"/>
<path transform="translate(346,625)" d="m0 0 3 1-2 5-2 4-8 11-5 6-7 9-5 4-4 6-3 1 2-5 14-20 11-14z" fill="#1C6D41"/>
<path transform="translate(1468,190)" d="m0 0h2l7 18 10 36 2 9 1 14-2-1-5-24-5-15-4-16-4-14-2-4z" fill="#1C5D2E"/>
<path transform="translate(1431,956)" d="m0 0 1 3-3 10-12 24-7 12h-3v-5l4-6 2-5 8-16h2v-2h2l2-7z" fill="#18582A"/>
<path transform="translate(1411,990)" d="m0 0 1 4-4 6-1 5h2l-2 6-9 16h-3-2l-1 4h-2l1-5 9-16 4-8z" fill="#1D774D"/>
<path transform="translate(795,1427)" d="m0 0m-9 1h9l-4 2-7 2-33 4-21 1v-2l2-1 33-3 10-2z" fill="#1A5B2D"/>
<path transform="translate(495,497)" d="m0 0m-4 1h4v2l-6 4h-2v2l-12 7-8 6-11 7-6 5-3-1 4-5 16-11 21-14z" fill="#2F713C"/>
<path transform="translate(281,723)" d="m0 0h2l-1 5-4 10-2 1-4 11-4 8-5 13-4 8-2 1 1-8 13-29z" fill="#266736"/>
<path transform="translate(221,954)" d="m0 0h1l1 35v41l-2-1-1-5v-69z" fill="#0E4E23"/>
<path transform="translate(1486,805)" d="m0 0h3l-1 8-8 27-4 1-1 2v-7l2-4 3-10 5-16z" fill="#226E3F"/>
<path transform="translate(947,1388)" d="m0 0h5v2l-20 7-25 8-6 2h-6l3-3 20-6 7-2h3l1-3z" fill="#1E6031"/>
<path transform="translate(1428,172)" d="m0 0h4l-1 3-21 10-6 3-3 3-10 6-9 6-2-1 5-5 17-11 17-10z" fill="#1A5B2D"/>
<path transform="translate(995,1369)" d="m0 0 3 2-3 3-31 12-9 2-3-1 1-3 13-3 1-1 7-1 4-3 7-3 6-2z" fill="#18582B"/>
<path transform="translate(1519,558)" d="m0 0h1v69h-2v12l-2 4v-12z" fill="#135428"/>
<path transform="translate(440,534)" d="m0 0 2 1-8 9-5 2v2h-2l-1 3-8 7-12 9-3 3-2-1 12-13 8-7 16-13z" fill="#195B2D"/>
<path transform="translate(1500,326)" d="m0 0h3l2 8 5 32v11l-2-1-2-9-4-26z" fill="#216232"/>
<path transform="translate(465,519)" d="m0 0 2 1-10 7-5 5-5 2v2l-4 1v2h-2l-2 4-6 4-1 2-5 3-5 5-2-1 7-8h2v-2l8-6 4-6 5-5h3l1 1h2l1-3z" fill="#22794D"/>
<path transform="translate(1502,741)" d="m0 0h1v10l-7 31-2 1-2-1v-6l5-18 2-7z" fill="#277C4F"/>
<path transform="translate(288,1496)" d="m0 0 2 2-2 13-4 40h-1v-27l2-20 2-7z" fill="#1E6233"/>
<path transform="translate(323,1330)" d="m0 0 2 2h-2v6l-3 6-2 9-1 6-5 3 1-10 6-21z" fill="#267C4F"/>
<path transform="translate(838,1419)" d="m0 0m-6 1h6l-1 3-34 6-14 2 2-2 5-2 1-1 18-3z" fill="#1B5C2E"/>
<path transform="translate(455,1045)" d="m0 0 2 2-8 11-3 6-8 13h-3l1-5 13-21 5-5z" fill="#21794E"/>
<path transform="translate(257,781)" d="m0 0 1 2-9 26-4 12h-2l1-9 9-27z" fill="#206131"/>
<path transform="translate(619,433)" d="m0 0 3 1-1 2-23 9-11 6h-6v-2l23-10z" fill="#216030"/>
<path transform="translate(307,1392)" d="m0 0h1v7l-3 8-2 16-3 16-4 24h-1v-9l6-36 3-16-1 1h-1v-5l2 1z" fill="#1D774D"/>
<path transform="translate(1289,1026)" d="m0 0h3l-2 6-4 5h-2l-1 5-5 7-4 4-5 2 2-4 14-19z" fill="#21794E"/>
<path transform="translate(408,1392)" d="m0 0 1 4-2 15-5 24-2 2-1-1v-7l6-24 1-11z" fill="#2A6A38"/>
<path transform="translate(1309,994)" d="m0 0 3 1-1 4h-2l-2 7-5 7h-2l-2 7-4 4h-2l1-4z" fill="#21794E"/>
<path transform="translate(243,822)" d="m0 0h1l-1 10-5 18-2 7h-2l1-10 6-24z" fill="#1C5E30"/>
<path transform="translate(221,1029)" d="m0 0h3l2 9v30l-2-4-3-31z" fill="#1F6D40"/>
<path transform="translate(1478,839)" d="m0 0h1l-1 8-10 29-2-2 1-7 2-3 3-11h2l1-10 1-2h2z" fill="#1F6132"/>
<path transform="translate(529,1424)" d="m0 0 17 2 21 3 13 2 16 1 4 2h-15l-35-5-21-4z" fill="#1D774D"/>
<path transform="translate(298,699)" d="m0 0 1 2-5 9-2 2-3 7-5 8-1 4h-2l-1 5-1-4 3-6 1-6 2-2 2-1 7-14z" fill="#1F774C"/>
<path transform="translate(398,1441)" d="m0 0h1v10h-2l-1 9-4 21-2 1 1-13 5-24z" fill="#0E4D22"/>
<path transform="translate(1450,916)" d="m0 0h2l-3 9-8 18-3 1 1-8 3-3 1-5 4-9h2z" fill="#1A5B2D"/>
<path transform="translate(575,452)" d="m0 0h5l-1 2-8 3-16 8-9 5-4-1 4-3 22-11z" fill="#266836"/>
<path transform="translate(795,1427)" d="m0 0m-9 1h9l-4 2-7 2-15 2h-5l4-4z" fill="#17582A"/>
<path transform="translate(224,933)" d="m0 0h1l-1 24-1 5h-1l-1-7h-1l1-17z" fill="#1F7347"/>
<path transform="translate(281,723)" d="m0 0h2l-1 5-4 10-2 1-4 11-4 1 2-6z" fill="#1D5C2C"/>
<path transform="translate(1510,704)" d="m0 0 1 3-5 29-2 3-2-1 1-10 2-7 3-9 1-7z" fill="#286D3B"/>
<path transform="translate(303,1401)" d="m0 0 2 1-4 19-3 9-2 4 1-11 4-20h2z" fill="#236636"/>
<path transform="translate(1139,1292)" d="m0 0 4 1v2l-20 13-3-1 5-5 8-4 4-5z" fill="#16572A"/>
<path transform="translate(226,1070)" d="m0 0 2 1v5h2l1 5 1 16-3-1-3-19z" fill="#217245"/>
<path transform="translate(299,1424)" d="m0 0h1l-1 13-3 17h-2l1-18 3-11z" fill="#125125"/>
<path transform="translate(519,481)" d="m0 0 2 1-4 5-11 6-7 5-2-1 5-6z" fill="#296936"/>
<path transform="translate(1370,1067)" d="m0 0 1 3-13 18h-2v-4h2l2-5 4-7z" fill="#165629"/>
<path transform="translate(1518,452)" d="m0 0h1l1 7v23h-2l-1-7v-22z" fill="#1C6032"/>
<path transform="translate(947,1388)" d="m0 0h5v2l-17 6h-2v-2l-5 1 3-3 5-1z" fill="#227042"/>
<path transform="translate(1482,815)" d="m0 0 2 4-2 9h-2l-1 7h2l-1 5-4 1-1 2v-7l2-4 3-10z" fill="#1D774D"/>
<path transform="translate(448,1403)" d="m0 0 7 1 12 5 10 3 1 2-8-1-21-8z" fill="#226535"/>
<path transform="translate(1502,741)" d="m0 0h1v10l-4 16h-1v-15l3-8z" fill="#206333"/>
<path transform="translate(331,650)" d="m0 0 1 2-7 9-5 4-4 6-3 1 2-5 6-9 4-1z" fill="#237A4E"/>
<path transform="translate(434,1078)" d="m0 0 2 1-4 7-5 9h-2v2h-2l1-5 8-13z" fill="#22794E"/>
<path transform="translate(346,625)" d="m0 0 3 1-6 8-7 10-2 2-1-4 8-10z" fill="#1E5E2E"/>
<path transform="translate(495,497)" d="m0 0m-4 1h4v2l-6 4h-2v2l-10 6-2-1 6-5 5-5z" fill="#1F6030"/>
<path transform="translate(1449,909)" d="m0 0 2 3-1 4-1 3h-2l-2 8-4 2 1-4 6-15z" fill="#1D774D"/>
<path transform="translate(486,1413)" d="m0 0 8 1 9 3 21 5v1l-10-1-21-5-7-2z" fill="#1D774D"/>
<path transform="translate(1489,257)" d="m0 0 2 4 3 15v8h-2l-3-13z" fill="#276B3A"/>
<path transform="translate(1323,974)" d="m0 0 1 2-6 11-5 5-1-3 7-12z" fill="#21794E"/>
<path transform="translate(1484,243)" d="m0 0 3 1 2 9 1 14-2-1-4-18z" fill="#16572A"/>
<path transform="translate(289,1473)" d="m0 0h1l1 7v10l-1 6-3 1 1-18z" fill="#246635"/>
<path transform="translate(639,425)" d="m0 0h5v2l-9 4-11 3 5-5z" fill="#1D5D2D"/>
<path transform="translate(1397,189)" d="m0 0 2 1-4 5-5 3-8 5-2-1 5-5z" fill="#1F6131"/>
<path transform="translate(597,442)" d="m0 0 3 1-5 4-8 4h-6v-2z" fill="#1B5C2D"/>
<path transform="translate(1509,378)" d="m0 0 3 2 1 9v16h-1l-3-21z" fill="#1C5D2E"/>
<path transform="translate(1507,353)" d="m0 0h1l2 13v11l-2-1-2-9v-8z" fill="#216333"/>
<path transform="translate(1406,1006)" d="m0 0h2l-1 5-5 9h-3v2h-2l1-5 4-3 1-5 3-1z" fill="#18592B"/>
<path transform="translate(579,450)" d="m0 0 8 1-2 2-9 4h-3v2l-7 1 3-3 6-3 4-1-2-2z" fill="#20794D"/>
<path transform="translate(251,800)" d="m0 0 1 4-3 7-2 12-3 9h-1v-9l-1-4 1 2h2l2-11z" fill="#1E764B"/>
<path transform="translate(450,651)" d="m0 0h2l-2 4-13 13h-2l1-4 7-6 5-5h2z" fill="#247B4F"/>
<path transform="translate(316,1346)" d="m0 0h1l1 7-1 6-5 3 1-10z" fill="#176035"/>
<path transform="translate(1396,1019)" d="m0 0 1 3h2v-2l2 1-3 6h-3-2l-1 4h-2l1-5z" fill="#20764B"/>
<path transform="translate(1518,627)" d="m0 0h1v14l-2 17h-1l-1-5v-9l2-5z" fill="#2C7240"/>
<path transform="translate(232,869)" d="m0 0 1 3-4 20h-1v-11l2-10z" fill="#185B2F"/>
<path transform="translate(297,696)" d="m0 0 1 3-6 10-5 9-2 1 1-5 8-14z" fill="#206333"/>
<path transform="translate(222,989)" d="m0 0h1l1 21 1 4-1 8-2-3z" fill="#1D774D"/>
<path transform="translate(960,1382)" d="m0 0 4 1v3l-9 2-3-1 1-3z" fill="#1A683C"/>
<path transform="translate(1492,786)" d="m0 0h2l-1 8-2 5-4 1 2-8z" fill="#1E693C"/>
<path transform="translate(221,1010)" d="m0 0h1l1 9v11l-2-1-1-5v-13z" fill="#145528"/>
<path transform="translate(1484,818)" d="m0 0h1l-1 9-3 8h-2l1-7h2v-2l-2-1h2l1-6z" fill="#1C5D2F"/>
<path transform="translate(306,1383)" d="m0 0h2l-1 9-2 7-2 1 1-11z" fill="#1B5E30"/>
<path transform="translate(315,1359)" d="m0 0h1l-1 7-2 5h-2l-1-7 2-4h2z" fill="#22794D"/>
<path transform="translate(231,1099)" d="m0 0 2 3 3 13-1 6-2-4-2-10z" fill="#1E5F30"/>
<path transform="translate(284,1255)" d="m0 0 3 1v2h2l2 7 3 3v3l-3-1-7-12z" fill="#1D6132"/>
<path transform="translate(1515,653)" d="m0 0h1v15l-1 3h-2l1-17z" fill="#165629"/>
<path transform="translate(1510,694)" d="m0 0h1v10l-1 1-2 10h-1l1-16z" fill="#0F4F24"/>
<path transform="translate(295,1662)" d="m0 0 4 2 7 4 9 3v1l-9-1-7-4z" fill="#185A2D"/>
<path transform="translate(402,1422)" d="m0 0h1v8l-2 7-2-1v-7z" fill="#1F5F30"/>
<path transform="translate(404,564)" d="m0 0 2 1-5 6-10 8-1 2h-2l2-4 4-2 1-3 8-7z" fill="#2D6D39"/>
<path transform="translate(281,1558)" d="m0 0 2 2-2 19h-1v-18z" fill="#0E4D22"/>
<path transform="translate(967,1380)" d="m0 0h9l-1 2-8 3h-5z" fill="#1A5F32"/>
<path transform="translate(1338,1111)" d="m0 0 1 3-8 9h-2l1-4 6-7z" fill="#1A5B2D"/>
<path transform="translate(1496,772)" d="m0 0h1l-1 10-2 1-2-1v-6z" fill="#1D6A3D"/>
<path transform="translate(262,767)" d="m0 0 1 4-4 8-2 1 1-8z" fill="#195A2C"/>
<path transform="translate(273,739)" d="m0 0h2l-1 7-3 5h-3l2-6z" fill="#216130"/>
<path transform="translate(459,521)" d="m0 0m-3 1h3v2l-6 4-3 3-3-1 4-5z" fill="#1F6131"/>
<path transform="translate(282,1533)" d="m0 0h1l1 20h-3v-13z" fill="#2C7D4E"/>
<path transform="translate(398,1441)" d="m0 0h1v10h-2v4h-2l1-10z" fill="#185729"/>
<path transform="translate(311,1367)" d="m0 0 1 2-3 13h-2l1-10 1-4z" fill="#1A5A2C"/>
<path transform="translate(298,699)" d="m0 0 1 2-5 9-4 3 2-6 4-6z" fill="#1D774D"/>
<path transform="translate(465,519)" d="m0 0 2 1-10 7-5 5-2-1 5-5z" fill="#1D774D"/>
<path transform="translate(1416,181)" d="m0 0m-1 1m-3 1h3v2h-4v3l-6 3-4-1h2l1-3z" fill="#1D774D"/>
<path transform="translate(223,920)" d="m0 0h1l1 6 2 1-1 6-4 2z" fill="#2B7A4A"/>
<path transform="translate(1471,862)" d="m0 0 1 3-4 11-2-2 1-7z" fill="#1F6031"/>
<path transform="translate(1505,727)" d="m0 0h2l-1 9-2 3-2-1 1-10z" fill="#296C3A"/>
<path transform="translate(307,1392)" d="m0 0h1v7l-3 6-2-4-1 2v-5l2 1z" fill="#1E764A"/>
<path transform="translate(448,1403)" d="m0 0 7 1 9 4v1l-7-1-9-4z" fill="#1F6132"/>
<path transform="translate(1363,1077)" d="m0 0 2 1-7 10h-2v-4h2l2-4z" fill="#1C5F31"/>
<path transform="translate(1504,346)" d="m0 0h3v13l-2-1-1-5z" fill="#15582C"/>
<path transform="translate(408,1392)" d="m0 0 1 4-1 10-2 2-1-3 1-11z" fill="#1A5F32"/>
<path transform="translate(1443,933)" d="m0 0 1 4-3 6-3 1 1-8z" fill="#1D6032"/>
<path transform="translate(288,1496)" d="m0 0 2 2-3 16h-1l1-17z" fill="#0E4D22"/>
<path transform="translate(1309,994)" d="m0 0 3 1-1 4h-2l-1 3-4 2 2-5z" fill="#237A4E"/>
<path transform="translate(322,660)" d="m0 0 2 1-7 8-3 3-1-2 5-7z" fill="#16572A"/>
<path transform="translate(341,634)" d="m0 0v3l-6 9-2-4 4-5z" fill="#175629"/>
<path transform="translate(1316,1136)" d="m0 0h3l-2 5-3 3-4-1z" fill="#18582B"/>
<path transform="translate(1363,1072)" d="m0 0 1 2-6 10-2-1 3-8z" fill="#1D774D"/>
<path transform="translate(1431,956)" d="m0 0 1 3-3 10-2 2-1-5z" fill="#1A5B2C"/>
<path transform="translate(311,673)" d="m0 0h2l-2 5-5 7-1-3z" fill="#1D5D2E"/>
<path transform="translate(890,1406)" d="m0 0h4l-1 3-9 2 1-3z" fill="#1D5E2F"/>
<path transform="translate(1478,839)" d="m0 0h1l-1 8-4 5 1-9 1-2h2z" fill="#18582B"/>
<path transform="translate(505,489)" d="m0 0 3 1-5 5-4 3-2-1 5-6z" fill="#1D5C2D"/>
<path transform="translate(526,477)" d="m0 0 2 1-5 5-4 3-2-1 5-6z" fill="#1B5A2B"/>
<path transform="translate(884,1408)" d="m0 0m-5 1h5v2l-6 2h-5l3-3z" fill="#165426"/>
<path transform="translate(1477,835)" d="m0 0h4l-1 5-4 1-1 2v-6z" fill="#217245"/>
<path transform="translate(1372,205)" d="m0 0h4v2l-4 1v2l-5 1v-3z" fill="#216130"/>
<path transform="translate(1468,190)" d="m0 0h2l4 10-1 2-4-6z" fill="#226433"/>
<path transform="translate(930,1394)" d="m0 0h3l-1 3-5 2h-5l3-3z" fill="#1A5B2D"/>
<path transform="translate(947,1388)" d="m0 0h5v2l-5 2h-7v-2z" fill="#15572B"/>
<path transform="translate(996,1367)" d="m0 0m-2 1 2 1-6 4-10 2 4-3z" fill="#1D774D"/>
<path transform="translate(1019,1260)" d="m0 0 3 1-4 4-5 1v-3z" fill="#247B4F"/>
<path transform="translate(246,810)" d="m0 0h1l-1 8-1 3h-2l1-9z" fill="#195B2D"/>
</svg>
